<?xml version="1.0" encoding="UTF-8"?><svg id="Layer_1" xmlns="http://www.w3.org/2000/svg" viewBox="0 0 419.27 419.27"><defs><style>.cls-1{fill:#4400b1;}</style></defs><path class="cls-1" d="M209.64,0C94.04,0,0,94.04,0,209.64s94.04,209.64,209.64,209.64,209.64-94.04,209.64-209.64S325.23,0,209.64,0ZM219.13,377c3.49-6.06,7.39-13.3,7.39-24.91,0-12.56-5.41-21.87-5.41-32.48,0-17.75,12.34-28.58,12.34-46.77,0-11.26-7.15-19.92-17.75-19.92s-15.16,7.15-15.16,17.11c0,5.2,6.28,35.51,9.74,46.77,3.25,11.04,7.79,22.3,7.79,34.64,0,8.43-2.43,17.77-6.52,25.81-.64,0-1.28.02-1.93.02-58.53,0-110.13-30.15-140.13-75.73,6.98,0,15.18-.26,25.2-6.05,10.88-6.28,16.23-15.62,25.42-20.93,15.38-8.88,30.92-3.6,46.67-12.7,9.75-5.63,13.68-16.15,8.37-25.34-5.2-9-13.77-9.55-22.39-4.57-4.5,2.6-27.61,23.19-35.63,31.82-7.94,8.33-15.42,17.9-26.1,24.07-7.29,4.21-16.57,6.77-25.57,7.26-14.9-25.04-23.48-54.27-23.48-85.47,0-27.12,6.48-52.75,17.96-75.44,3.5,6.05,7.82,13.04,17.86,18.83,10.88,6.28,21.65,6.25,30.83,11.55,15.38,8.88,18.58,24.98,34.33,34.07,9.75,5.63,20.82,3.77,26.13-5.42,5.2-9,1.39-16.7-7.24-21.68-4.5-2.6-33.89-12.32-45.37-14.95-11.19-2.71-23.21-4.4-33.9-10.57-7.29-4.21-14.16-10.97-19.07-18.52,27.31-48.41,77.98-81.96,136.61-85.25-3.49,6.06-7.39,13.3-7.39,24.91,0,12.56,5.41,21.87,5.41,32.48,0,17.75-12.34,28.58-12.34,46.77,0,11.26,7.15,19.92,17.75,19.92s15.16-7.15,15.16-17.11c0-5.2-6.28-35.51-9.74-46.77-3.25-11.04-7.79-22.3-7.79-34.64,0-8.43,2.43-17.77,6.52-25.81.64,0,1.28-.02,1.93-.02,58.53,0,110.13,30.15,140.13,75.73-6.98,0-15.18.26-25.2,6.05-10.88,6.28-16.23,15.62-25.42,20.93-15.38,8.88-30.92,3.6-46.67,12.7-9.75,5.63-13.68,16.15-8.37,25.34,5.2,9,13.77,9.55,22.39,4.57,4.5-2.6,27.61-23.19,35.63-31.82,7.94-8.33,15.42-17.9,26.1-24.07,7.29-4.21,16.57-6.77,25.57-7.26,14.9,25.04,23.48,54.27,23.48,85.47,0,27.12-6.48,52.75-17.96,75.44-3.5-6.05-7.82-13.04-17.86-18.83-10.88-6.28-21.65-6.25-30.83-11.55-15.38-8.88-18.58-24.98-34.33-34.07-9.75-5.63-20.82-3.77-26.13,5.42-5.2,9-1.39,16.7,7.24,21.68,4.5,2.6,33.89,12.32,45.37,14.95,11.19,2.71,23.21,4.4,33.9,10.57,7.29,4.21,14.16,10.97,19.07,18.52-27.31,48.41-77.98,81.96-136.61,85.25Z"/></svg>